<?xml version="1.0" standalone="no"?>
<!DOCTYPE svg PUBLIC "-//W3C//DTD SVG 20010904//EN"
 "http://www.w3.org/TR/2001/REC-SVG-20010904/DTD/svg10.dtd">
<svg version="1.0" xmlns="http://www.w3.org/2000/svg"
 width="1500.000000pt" height="1000.000000pt" viewBox="0 0 1500.000000 1000.000000"
 preserveAspectRatio="xMidYMid meet">

<g transform="translate(0.000000,1000.000000) scale(0.100000,-0.100000)"
fill="#000000" stroke="none">
<path d="M3625 9422 c-1 -2 -65 -5 -141 -6 -138 -4 -274 -27 -274 -48 0 -5 -4
-7 -9 -3 -12 7 -73 -29 -64 -38 3 -4 -1 -7 -9 -7 -9 0 -26 -11 -39 -25 -13
-13 -34 -25 -46 -25 -12 0 -27 -9 -33 -19 -16 -30 -12 -34 12 -11 24 22 46 28
31 8 -5 -7 -20 -37 -32 -66 -21 -50 -21 -55 -6 -104 8 -28 12 -48 8 -44 -4 4
-13 -8 -19 -26 -10 -26 -13 -28 -13 -11 -1 12 -5 24 -10 27 -5 3 -8 14 -6 24
11 54 13 92 4 87 -5 -4 -9 2 -10 12 0 16 -1 16 -9 -2 -5 -11 -9 -27 -9 -35 -1
-13 1 -13 10 0 9 12 10 12 5 -3 -3 -10 -6 -22 -6 -25 0 -4 -7 3 -15 15 -8 12
-12 30 -9 40 5 16 4 16 -10 -1 -16 -20 -16 -20 -16 1 0 43 21 80 55 96 19 9
35 24 35 32 0 24 -72 -19 -118 -70 -20 -22 -40 -40 -43 -40 -4 0 -11 -3 -15
-7 -4 -5 -2 -8 4 -8 7 0 11 -3 10 -7 -1 -5 3 -17 9 -28 6 -11 14 -44 18 -72 4
-29 12 -53 18 -53 6 0 7 -3 4 -6 -4 -4 -13 -1 -21 5 -11 10 -15 8 -19 -6 -3
-10 -5 -3 -6 15 0 17 -5 32 -10 32 -10 0 -25 -30 -22 -44 1 -5 -5 -4 -13 4
-18 14 -22 60 -6 60 6 0 5 6 -2 14 -7 8 -15 14 -18 13 -3 0 -18 5 -33 11 -16
7 -37 12 -47 12 -10 0 -20 5 -22 11 -4 12 -38 1 -38 -13 0 -16 -44 -47 -67
-48 -13 0 -23 -5 -23 -11 0 -6 -6 -9 -12 -7 -7 3 -22 -4 -33 -15 -20 -20 -20
-20 3 -8 30 16 28 -3 -3 -23 -29 -19 -38 -20 -30 -3 3 6 -34 -30 -83 -80 -49
-51 -95 -105 -103 -120 -8 -16 -31 -52 -51 -82 -21 -29 -35 -57 -32 -62 2 -4
-9 -35 -25 -68 -17 -33 -26 -61 -21 -63 6 -2 3 -15 -5 -32 -8 -16 -17 -52 -19
-80 -2 -29 -11 -66 -20 -83 -9 -19 -14 -48 -12 -72 2 -22 0 -39 -3 -36 -4 2
-5 -33 -3 -78 5 -121 5 -127 -3 -187 -8 -65 -8 -58 -6 -93 0 -16 5 -26 10 -23
9 6 32 -160 36 -264 2 -36 10 -90 18 -120 8 -30 20 -98 26 -150 14 -111 19
-131 76 -310 70 -219 84 -309 89 -578 2 -107 6 -196 9 -198 2 -3 10 22 16 55
11 55 31 92 31 59 1 -8 5 -7 14 5 10 13 16 15 21 7 6 -9 10 -9 16 1 7 11 9 10
9 -3 0 -11 5 -15 15 -12 10 4 15 0 15 -11 0 -11 5 -15 15 -11 9 3 15 0 15 -10
0 -14 2 -14 16 0 20 20 28 20 20 0 -7 -18 43 -72 53 -57 7 11 22 10 39 0 7 -5
12 -4 12 2 0 6 7 11 15 11 8 0 15 -5 15 -11 0 -5 5 -7 11 -3 6 3 15 0 20 -7 7
-11 9 -11 9 2 0 17 36 33 45 20 5 -9 36 -8 52 2 6 4 18 4 27 1 10 -4 16 -1 16
9 0 13 6 13 45 1 48 -14 79 -10 69 10 -3 6 6 -2 20 -17 14 -15 26 -24 26 -20
0 4 5 0 11 -10 8 -14 14 -16 25 -6 11 9 14 8 14 -5 0 -9 18 -34 40 -56 22 -22
37 -40 33 -40 -11 0 30 -35 51 -43 11 -4 16 -13 12 -22 -3 -9 -1 -15 7 -14 22
3 35 -1 49 -14 7 -7 24 -18 38 -25 l25 -12 -27 5 c-16 3 -28 1 -28 -5 0 -5 6
-10 13 -10 7 0 18 -5 25 -12 9 -9 5 -17 -16 -35 -33 -28 -38 -28 -81 -2 -26
16 -32 17 -28 5 5 -12 2 -14 -11 -7 -22 12 -317 83 -502 121 -80 17 -192 33
-250 36 -142 8 -152 1 -235 -162 -34 -67 -92 -165 -128 -217 l-66 -96 32 -5
c17 -3 64 -10 102 -16 39 -7 111 -15 160 -20 52 -4 111 -17 140 -29 l50 -21
-125 5 c-100 3 -112 2 -60 -5 163 -22 236 -33 255 -40 11 -4 -98 -7 -243 -7
-144 0 -265 4 -268 8 -3 5 12 10 33 10 63 3 -69 17 -166 18 -147 2 -76 16 112
22 148 5 137 6 -58 2 -239 -3 -274 -6 -435 -37 -92 -17 -116 -32 -105 -65 6
-21 11 -21 283 -22 365 -2 444 -4 587 -18 215 -20 574 -86 716 -131 50 -16
117 -34 148 -40 32 -6 96 -22 142 -35 49 -15 144 -31 229 -40 258 -25 322 -40
445 -102 275 -139 468 -258 540 -333 135 -141 408 -336 735 -525 113 -64 240
-163 260 -200 14 -26 -1 -65 -24 -65 -8 0 -32 -12 -54 -26 l-39 -26 46 -43
c55 -50 106 -78 185 -98 78 -21 99 -41 92 -88 -6 -39 -9 -37 157 -164 66 -50
81 -71 173 -240 30 -55 110 -310 163 -520 53 -213 82 -557 63 -781 -6 -76 -7
-142 -3 -147 4 -4 176 -10 382 -13 206 -2 457 -6 559 -7 102 -2 192 -6 200
-10 40 -19 41 -24 40 -680 0 -348 -3 -728 -7 -844 l-6 -213 256 0 257 0 0 383
c0 210 3 585 6 832 6 394 9 452 23 469 15 18 29 18 246 12 127 -3 338 -10 470
-15 132 -6 339 -13 460 -16 203 -6 221 -8 234 -26 14 -20 17 -342 6 -719 -3
-91 -7 -304 -10 -475 -4 -171 -8 -340 -11 -377 l-6 -68 303 0 302 0 -7 88 c-3
48 -9 411 -13 808 l-6 720 33 16 c18 9 47 15 64 13 17 -2 128 -6 246 -10 118
-3 325 -10 460 -15 135 -6 430 -17 655 -25 226 -8 448 -17 495 -20 47 -2 137
-7 200 -10 115 -6 187 -10 355 -20 132 -8 262 -14 525 -25 129 -5 273 -12 320
-15 89 -5 183 -10 540 -25 331 -15 380 -20 420 -41 l35 -19 -30 1 c-67 4 -75
1 -75 -31 0 -16 -4 -30 -10 -30 -5 0 -10 16 -10 35 0 33 2 35 33 36 30 1 30 2
7 8 -42 12 -56 3 -58 -37 -2 -20 -7 -38 -12 -40 -6 -2 -10 -17 -10 -32 0 -29
0 -29 -71 -32 l-72 -3 0 -57 c1 -57 0 -58 -27 -58 -26 0 -29 -4 -33 -37 l-4
-38 -1 38 c-2 30 -6 37 -22 37 -16 0 -20 -7 -20 -30 0 -16 -4 -30 -10 -30 -5
0 -10 5 -10 10 0 6 -11 10 -25 10 -14 0 -25 -4 -25 -10 0 -5 -13 -10 -30 -10
l-30 0 0 60 c0 35 -4 60 -10 60 -7 0 -9 -20 -4 -60 6 -56 5 -60 -14 -60 -15 0
-22 8 -25 27 l-4 28 -2 -27 c-1 -24 -5 -28 -31 -28 -27 0 -30 3 -30 30 0 27
-3 30 -30 30 -27 0 -30 -3 -30 -30 0 -28 -2 -30 -40 -30 -38 0 -40 -2 -40 -30
0 -16 -4 -30 -10 -30 -5 0 -10 14 -10 30 0 17 -4 30 -10 30 -5 0 -10 -18 -10
-40 0 -38 -2 -40 -30 -40 -24 0 -30 -4 -31 -22 0 -17 -4 -12 -12 14 -14 43
-33 40 -40 -7 l-4 -30 -2 33 c-1 29 -4 32 -32 32 -17 0 -28 4 -24 10 4 6 -8
10 -29 10 -28 0 -36 4 -40 22 -2 13 -2 -5 1 -39 l5 -63 -61 0 -61 0 0 -39 c0
-33 -3 -39 -25 -43 -29 -6 -35 -2 -35 24 0 13 -8 18 -30 18 -16 0 -30 -4 -30
-10 0 -13 -107 -13 -115 0 -9 15 -66 13 -63 -2 2 -8 -8 -11 -29 -9 -28 2 -33
-1 -33 -18 0 -17 -6 -21 -29 -21 -16 0 -31 -4 -33 -10 -1 -5 -15 -11 -30 -12
-23 -2 -28 -7 -28 -30 0 -24 -4 -28 -30 -28 -27 0 -30 -3 -30 -30 0 -23 -4
-30 -20 -30 -16 0 -20 -7 -20 -30 0 -16 -4 -30 -10 -30 -5 0 -10 5 -10 10 0 6
-13 10 -30 10 -27 0 -30 -3 -30 -30 0 -27 -3 -30 -30 -30 -16 0 -30 -4 -30
-10 0 -5 -9 -10 -20 -10 -16 0 -20 -7 -20 -30 l0 -30 -62 0 c-75 -1 -110 -19
-87 -46 13 -16 11 -17 -16 -10 -16 4 -45 10 -62 13 -33 5 -33 5 -27 -28 4 -25
3 -30 -5 -19 -8 12 -11 12 -17 -5 -5 -11 -3 -20 4 -23 23 -7 11 -22 -18 -22
-16 0 -30 -4 -30 -10 0 -6 -27 -10 -60 -10 -33 0 -60 -4 -60 -10 0 -5 5 -10
10 -10 6 0 10 -13 10 -30 0 -16 -4 -30 -10 -30 -5 0 -10 7 -10 16 0 24 -23 11
-40 -22 -11 -23 -15 -25 -18 -12 -4 23 -62 26 -62 4 0 -11 -7 -13 -30 -6 -27
8 -30 7 -30 -16 0 -20 -5 -24 -30 -24 -16 0 -30 -4 -30 -10 0 -5 -13 -10 -30
-10 -16 0 -30 -4 -30 -10 0 -6 -27 -10 -60 -10 -33 0 -60 -4 -60 -10 0 -5 14
-10 30 -10 17 0 30 -4 30 -10 0 -5 -13 -10 -30 -10 -16 0 -30 -4 -30 -10 0 -5
-13 -10 -30 -10 -16 0 -30 5 -30 12 0 6 -11 1 -24 -11 -14 -13 -29 -20 -35
-17 -5 4 -12 -3 -16 -14 -7 -24 -21 -26 -28 -5 -5 11 -15 5 -44 -24 -34 -34
-44 -38 -93 -40 -30 -1 -56 -6 -58 -12 -2 -5 -17 -9 -33 -9 -20 0 -29 -5 -29
-16 0 -46 -100 -44 1994 -44 l1966 0 0 1148 c0 1136 0 1147 -20 1160 -13 8
-20 23 -20 42 0 42 28 40 33 -2 2 -18 5 56 5 165 1 108 -1 197 -5 197 -5 -1
-18 -9 -30 -19 -24 -20 -30 -41 -13 -41 6 0 10 -7 10 -15 0 -8 -4 -15 -10 -15
-6 0 -10 -27 -10 -60 0 -33 -4 -60 -10 -60 -6 0 -10 -27 -10 -60 0 -53 -2 -60
-20 -60 -16 0 -20 -7 -20 -30 0 -16 5 -30 11 -30 5 0 7 -5 3 -11 -4 -8 -9 -7
-15 2 -8 12 -11 12 -18 -1 -5 -8 -8 -17 -5 -21 2 -5 -4 -6 -16 -4 -11 2 -19 1
-19 -3 4 -22 -5 -27 -41 -24 -40 4 -40 4 -40 -30 0 -22 -7 -42 -20 -53 -19
-18 -20 -17 -20 3 0 12 -5 22 -10 22 -6 0 -10 17 -8 40 2 41 -19 79 -29 52 -3
-7 -11 -19 -19 -26 -8 -8 -14 -27 -14 -43 0 -15 -9 -43 -20 -61 -11 -18 -20
-43 -20 -56 0 -14 -5 -26 -10 -28 -6 -2 -11 -30 -12 -63 -1 -35 -8 -74 -19
-95 -22 -44 -30 -80 -18 -80 5 0 2 -11 -7 -25 -10 -15 -16 -44 -16 -70 1 -25
-2 -45 -6 -45 -21 0 -52 -43 -52 -72 0 -19 -9 -41 -22 -55 -13 -14 -18 -27
-13 -31 6 -4 12 -20 13 -36 l4 -29 -66 6 c-55 5 -67 4 -75 -11 -5 -9 -13 -14
-16 -10 -4 4 5 18 19 33 23 23 29 37 40 97 2 9 0 193 -5 410 -9 416 -11 2608
-4 3383 5 525 32 1720 61 2711 l7 222 -23 12 c-22 12 -282 10 -700 -6 -80 -3
-406 -7 -725 -9 -319 -2 -863 -9 -1210 -14 -346 -6 -1003 -15 -1460 -21 -947
-13 -1025 -14 -1754 -28 -294 -6 -1201 -14 -2015 -17 -815 -4 -1486 -11 -1492
-16 -7 -5 -18 7 -32 37 -25 51 -29 94 -8 94 8 0 16 7 20 15 7 20 -3 46 -16 39
-6 -4 -5 3 2 15 9 18 9 26 -2 39 -9 11 -10 14 0 8 7 -4 12 -2 12 6 0 8 4 7 11
-4 5 -10 16 -15 25 -11 18 7 53 -23 65 -55 5 -13 14 -20 19 -17 6 4 18 1 26
-6 13 -10 13 -8 4 16 -8 21 -8 30 1 36 16 10 3 39 -17 39 -10 0 -14 3 -11 7 4
3 2 12 -4 20 -9 10 -7 13 8 13 11 0 36 -16 56 -35 24 -24 37 -31 37 -21 0 9
-13 25 -30 38 -16 12 -30 27 -30 34 0 7 -16 21 -35 33 -23 14 -33 25 -29 36 6
14 -6 20 -29 16 -8 -1 -133 92 -179 133 -10 9 -22 16 -27 16 -6 0 -12 4 -15 9
-3 4 7 8 22 7 17 0 26 4 24 13 -3 17 18 4 41 -25 15 -20 21 -21 47 -11 19 7
26 15 20 21 -6 6 -10 14 -10 18 0 10 58 -19 78 -38 7 -8 18 -12 23 -9 14 10
10 25 -7 25 -8 0 -13 4 -10 8 8 14 -45 59 -91 77 -24 10 -43 21 -43 26 0 5
-27 22 -59 39 -33 16 -61 35 -64 42 -4 9 -6 9 -6 1 -1 -9 -8 -8 -28 3 -16 7
-34 14 -40 14 -7 0 -13 3 -13 8 0 20 -50 61 -88 71 -23 7 -42 15 -42 20 0 5
-10 8 -22 7 -31 -3 -92 26 -77 35 7 4 4 9 -10 14 -23 7 -28 21 -8 28 6 3 -6 3
-28 1 -30 -3 -35 -2 -20 5 l20 10 -20 1 c-11 2 -27 2 -35 1 -11 0 -11 1 -2 5
10 5 10 9 1 21 -13 14 -2 14 62 -3 9 -3 16 2 16 11 0 8 -9 16 -19 16 -21 2
-20 2 -73 17 -49 15 -55 15 -55 2 0 -5 10 -10 21 -10 17 0 19 -3 10 -13 -6 -8
-23 -12 -41 -9 -24 3 -28 7 -20 17 14 16 -2 28 -25 19 -13 -5 -16 -2 -13 12 2
12 11 18 23 16 20 -3 20 -3 0 12 -24 19 -66 21 -63 4 2 -7 8 -15 15 -18 8 -3
9 -10 3 -20 -8 -11 -12 -12 -18 -3 -6 10 -18 9 -52 -1 -46 -13 -116 -11 -126
5 -7 11 3 11 43 0 29 -8 36 -6 64 20 26 25 28 30 14 35 -12 5 -13 9 -5 14 19
12 3 29 -21 23 -12 -3 -25 0 -29 7 -6 10 -20 10 -72 -3 -37 -9 -64 -12 -66 -7
-2 6 -11 6 -23 -1 -11 -6 -28 -9 -37 -7 -12 2 -6 8 18 20 19 10 28 18 20 18
-13 0 -13 1 0 10 12 8 10 10 -9 10 -16 0 -21 -4 -18 -14 4 -9 -2 -15 -16 -18
-24 -4 -71 15 -60 25 3 4 0 7 -8 8 -8 0 -6 4 6 9 17 7 16 9 -10 10 -65 4 -187
5 -190 2z m-289 -31 c-4 -5 20 -8 53 -8 33 1 58 4 56 7 -2 3 20 6 48 6 37 2
46 -1 34 -8 -10 -5 -23 -7 -30 -5 -7 2 -19 1 -27 -3 -27 -13 -72 -21 -66 -12
6 11 -71 -9 -101 -26 -26 -15 -57 -16 -48 -2 3 6 17 10 30 10 12 0 25 6 28 14
4 11 -1 13 -19 10 -35 -6 -29 4 9 15 17 5 33 10 35 10 2 1 1 -3 -2 -8z m-76
-30 c0 -12 -28 -22 -34 -12 -3 5 -3 11 1 15 9 9 33 7 33 -3z m-105 -55 c-15
-23 -45 -42 -45 -29 0 8 43 51 53 52 4 1 0 -10 -8 -23z m792 8 c-3 -3 -12 -4
-19 -1 -8 3 -5 6 6 6 11 1 17 -2 13 -5z m143 -24 c-9 -17 -14 -18 -31 -7 -19
12 -19 12 3 19 37 10 39 9 28 -12z m-894 -33 c-15 -12 -38 -35 -51 -52 -13
-16 -24 -24 -25 -17 0 6 9 21 20 32 11 11 18 21 15 21 -24 6 -35 0 -69 -35
-22 -23 -34 -31 -27 -18 6 12 8 22 4 22 -4 0 8 10 27 23 19 12 37 21 40 21 3
-1 12 3 21 10 9 6 29 12 44 13 l28 1 -27 -21z m839 -47 c22 -10 34 -19 27 -19
-16 -1 -82 26 -82 33 0 9 12 6 55 -14z m-608 -16 c-3 -3 -12 -4 -19 -1 -8 3
-5 6 6 6 11 1 17 -2 13 -5z m-97 -34 c-8 -5 -22 -10 -31 -10 -9 0 -24 -9 -33
-19 -10 -11 -23 -18 -30 -15 -14 5 -36 -36 -36 -68 0 -15 4 -18 18 -13 34 14
52 17 52 8 0 -5 -27 -17 -60 -26 -54 -17 -160 -87 -128 -87 7 0 26 13 41 29
16 16 40 31 55 34 37 7 41 0 6 -13 -16 -6 -31 -15 -34 -19 -11 -15 -66 -47
-80 -46 -8 0 -14 7 -12 15 3 11 0 11 -13 0 -11 -9 -13 -15 -4 -20 8 -6 8 -9 0
-14 -17 -11 -24 20 -10 46 7 13 12 26 11 31 -1 4 3 7 8 7 6 0 10 5 10 12 0 6
7 19 16 29 9 10 23 31 32 48 17 30 132 99 132 78 0 -6 5 -5 13 1 11 9 42 18
77 20 13 2 13 1 0 -8z m790 0 c0 -5 -2 -10 -4 -10 -3 0 -8 5 -11 10 -3 6 -1
10 4 10 6 0 11 -4 11 -10z m24 -6 c3 -8 2 -12 -4 -9 -6 3 -10 10 -10 16 0 14
7 11 14 -7z m131 6 c3 -6 -1 -7 -9 -4 -18 7 -21 14 -7 14 6 0 13 -4 16 -10z
m-1405 -24 c0 -8 -4 -18 -10 -21 -5 -3 -10 3 -10 14 0 12 5 21 10 21 6 0 10
-6 10 -14z m160 -34 c0 -15 -2 -15 -10 -2 -13 20 -13 33 0 25 6 -3 10 -14 10
-23z m1430 8 c0 -5 -2 -10 -4 -10 -3 0 -8 5 -11 10 -3 6 -1 10 4 10 6 0 11 -4
11 -10z m-1135 -59 c-3 -6 -11 -11 -17 -11 -6 0 -6 6 2 15 14 17 26 13 15 -4z
m1231 10 c5 -5 18 -11 29 -14 20 -5 19 -5 -1 -6 -11 0 -29 6 -40 14 -10 8 -14
15 -8 15 5 0 14 -4 20 -9z m-1859 -56 c8 -9 13 -19 9 -22 -7 -7 -36 16 -36 28
0 13 10 11 27 -6z m678 5 c4 -6 -6 -10 -22 -9 -25 0 -26 1 -8 9 11 5 21 9 22
9 1 1 5 -3 8 -9z m-62 -7 c-7 -2 -21 -2 -30 0 -10 3 -4 5 12 5 17 0 24 -2 18
-5z m-640 -23 c13 0 47 -30 47 -42 0 -5 -12 0 -26 11 -15 12 -33 21 -40 21 -8
0 -11 6 -7 17 4 11 8 12 11 5 2 -7 9 -12 15 -12z m72 -28 c-8 -9 -35 20 -28
31 4 6 11 3 19 -8 8 -10 12 -21 9 -23z m29 -1 c-6 -6 -24 19 -24 34 1 6 7 1
15 -9 8 -11 12 -22 9 -25z m-101 -5 c4 -9 -2 -17 -14 -21 -10 -4 -19 -13 -19
-21 0 -8 -9 -14 -20 -14 -11 0 -20 -6 -21 -12 0 -10 -2 -10 -5 -1 -3 7 -12 9
-20 6 -15 -6 -44 13 -44 29 0 5 23 7 50 4 47 -4 66 5 38 18 -9 4 -8 5 2 5 30
-2 41 1 35 11 -3 6 -2 10 3 10 6 0 12 -7 15 -14z m684 -12 c-3 -3 -12 -4 -19
-1 -8 3 -5 6 6 6 11 1 17 -2 13 -5z m40 -10 c-3 -3 -12 -4 -19 -1 -8 3 -5 6 6
6 11 1 17 -2 13 -5z m-79 -41 c-16 -2 -40 -2 -55 0 -16 2 -3 4 27 4 30 0 43
-2 28 -4z m-314 -28 c-9 -14 -19 -24 -21 -21 -6 6 20 46 30 46 4 0 0 -11 -9
-25z m-404 -20 c-7 -9 -24 -9 -62 -1 -47 10 -50 11 -20 14 17 2 32 7 32 12 0
4 13 3 30 -3 20 -8 26 -15 20 -22z m57 -1 c-3 -3 -12 -4 -19 -1 -8 3 -5 6 6 6
11 1 17 -2 13 -5z m280 -26 c-3 -7 -5 -2 -5 12 0 14 2 19 5 13 2 -7 2 -19 0
-25z m553 6 c0 -2 -9 0 -20 6 -11 6 -20 13 -20 16 0 2 9 0 20 -6 11 -6 20 -13
20 -16z m1328 -12 c2 -7 -2 -10 -12 -6 -9 3 -16 11 -16 16 0 13 23 5 28 -10z
m-1851 -39 c-3 -10 -5 -2 -5 17 0 19 2 27 5 18 2 -10 2 -26 0 -35z m462 1 c14
-12 -19 -1 -35 12 -18 14 -18 14 6 3 14 -6 27 -13 29 -15z m1506 6 c3 -5 1
-10 -4 -10 -6 0 -11 5 -11 10 0 6 2 10 4 10 3 0 8 -4 11 -10z m-1935 -42 c0
-23 -3 -29 -9 -19 -8 12 -4 51 5 51 2 0 4 -15 4 -32z m40 -43 c0 -8 5 -15 11
-15 5 0 8 4 4 9 -3 5 -1 12 5 16 5 3 10 -1 10 -11 0 -11 6 -15 19 -11 10 2 24
2 29 -2 20 -12 -3 -28 -47 -34 -25 -3 -39 -2 -32 3 10 6 8 9 -8 15 -24 7 -29
45 -6 45 8 0 15 -7 15 -15z m172 -23 c-7 -2 -12 -10 -12 -18 0 -8 -9 -14 -22
-13 -22 0 -22 1 -3 8 19 8 18 9 -5 12 -14 2 -26 11 -28 21 -3 14 2 15 40 5 23
-6 37 -12 30 -15z m98 -3 c15 -28 5 -23 -15 7 -9 15 -12 23 -6 20 6 -4 16 -16
21 -27z m-772 -10 c-11 -6 -24 -6 -34 -1 -12 7 -8 9 18 10 26 1 30 -1 16 -9z
m700 -17 c2 -7 -3 -12 -12 -12 -9 0 -16 7 -16 16 0 17 22 14 28 -4z m-776 -2
c6 0 0 -8 -13 -19 -30 -23 -89 -37 -89 -21 0 6 4 9 9 5 6 -3 25 4 43 16 18 12
25 18 15 15 -11 -4 -16 -2 -12 5 4 6 14 8 22 5 8 -3 19 -6 25 -6z m699 -11
c11 -11 17 -24 13 -27 -3 -4 -9 -1 -11 6 -3 8 -9 10 -16 4 -7 -5 -21 -6 -32
-1 -17 6 -17 8 -2 8 9 1 17 8 17 16 0 20 6 19 31 -6z m-626 -39 c-11 -5 -27
-9 -35 -9 -9 0 -8 4 5 9 11 5 27 9 35 9 9 0 8 -4 -5 -9z m585 -5 c0 -2 -10 -9
-22 -15 -22 -11 -22 -10 -4 4 21 17 26 19 26 11z m53 -2 c-7 -2 -19 -2 -25 0
-7 3 -2 5 12 5 14 0 19 -2 13 -5z m163 -89 c-4 -9 -9 -15 -11 -12 -3 3 -3 13
1 22 4 9 9 15 11 12 3 -3 3 -13 -1 -22z m-747 -37 c-2 -1 -13 -9 -24 -17 -19
-14 -19 -14 -6 3 7 9 18 17 24 17 6 0 8 -1 6 -3z m358 -121 c-2 -19 -5 -37 -8
-40 -4 -5 -4 21 0 62 3 28 10 9 8 -22z m2089 -234 c16 -91 19 -288 4 -297 -6
-4 -7 -11 -4 -17 4 -6 2 -8 -4 -5 -16 11 -49 242 -34 249 4 1 5 39 2 83 -10
130 11 122 36 -13z m344 -108 c0 -27 -48 -121 -65 -128 -15 -5 -16 -2 -10 21
3 16 12 42 20 58 7 17 15 38 19 48 7 21 36 23 36 1z m150 -217 c-14 -13 -50
-34 -80 -47 -30 -12 -78 -34 -106 -46 -38 -18 -67 -24 -110 -22 -43 1 -49 2
-21 5 28 3 40 10 47 27 9 24 48 40 73 30 8 -3 18 -1 21 4 8 14 114 64 123 59
5 -3 17 -1 28 4 40 16 50 10 25 -14z m-493 -159 c-3 -8 -6 -5 -6 6 -1 11 2 17
5 13 3 -3 4 -12 1 -19z m-457 -464 c13 -34 15 -31 -27 -53 -69 -35 -120 -117
-109 -176 6 -30 10 -35 27 -30 14 5 28 0 44 -15 22 -21 24 -21 35 -3 9 14 10
5 6 -46 -3 -41 -1 -59 5 -50 7 11 9 9 9 -9 0 -13 -4 -20 -10 -17 -6 4 -10 -5
-10 -22 1 -76 -17 -153 -37 -153 -9 0 -13 -6 -10 -13 3 -8 -3 -20 -14 -28 -10
-7 -24 -28 -30 -46 -6 -18 -15 -31 -20 -28 -5 4 -9 -2 -10 -12 -3 -72 -25
-117 -64 -135 -51 -23 -100 16 -76 61 17 31 13 70 -15 156 l-26 80 22 50 c18
41 22 67 21 145 -2 110 14 174 59 242 33 49 113 108 148 108 11 0 24 5 27 10
12 20 45 10 55 -16z m260 -8 c0 -8 -4 -18 -10 -21 -5 -3 -10 3 -10 14 0 12 5
21 10 21 6 0 10 -6 10 -14z m-349 -189 c-13 -12 -20 -15 -16 -7 14 26 28 41
33 35 3 -3 -5 -16 -17 -28z m283 -21 c-3 -9 -13 -16 -22 -16 -13 0 -12 3 3 20
20 23 29 21 19 -4z m36 -104 c-12 -48 -26 -108 -32 -134 -6 -27 -15 -48 -19
-48 -5 0 -8 3 -7 8 1 4 -4 17 -11 30 -10 18 -10 26 0 38 7 8 13 34 13 58 1 24
4 42 9 39 4 -2 7 5 7 16 0 26 21 71 32 71 5 0 6 10 2 22 -6 21 -6 21 11 5 16
-16 16 -22 -5 -105z m540 68 c8 -5 11 -12 8 -15 -10 -10 -69 5 -62 16 7 12 35
11 54 -1z m103 -24 c9 -7 28 -11 42 -8 25 4 36 -12 13 -20 -19 -7 -74 10 -88
27 -16 20 7 20 33 1z m-719 -123 c-5 -5 -12 -12 -16 -18 -4 -6 -8 -2 -8 8 0 9
7 17 17 17 9 0 12 -3 7 -7z m593 -91 c6 -4 14 -19 18 -34 7 -27 7 -28 -24 -17
-31 11 -56 41 -44 53 9 8 35 7 50 -2z m139 -258 c5 -27 1 -34 -39 -67 -40 -33
-97 -58 -97 -43 0 4 14 35 31 71 23 45 39 67 58 73 31 11 39 6 47 -34z m4492
-137 c3 -14 -5 -17 -39 -17 -44 0 -45 4 -7 25 28 16 42 13 46 -8z m-4336 -141
c17 -12 17 -14 -1 -30 -23 -21 -101 -46 -161 -52 -87 -8 -280 -12 -280 -6 1
24 21 34 56 30 22 -3 55 1 75 8 20 6 63 15 96 19 59 6 126 25 139 38 12 11 58
7 76 -7z m-1782 -55 c0 -5 3 -17 7 -27 4 -11 3 -15 -4 -11 -14 9 -24 47 -12
47 5 0 9 -4 9 -9z m107 -35 c-9 -9 -23 -13 -31 -10 -23 9 -20 27 4 21 11 -3
23 -1 26 5 3 5 8 7 11 4 3 -3 -2 -12 -10 -20z m46 -49 c-3 -5 -10 -4 -15 1 -6
6 -7 16 -3 22 6 9 9 9 16 -1 4 -7 5 -17 2 -22z m-49 -9 c5 -19 8 -21 16 -8 8
12 10 11 10 -6 0 -16 -6 -22 -22 -20 -18 1 -23 7 -23 28 0 34 10 36 19 6z
m-547 -84 c3 -8 2 -18 -2 -22 -4 -4 -10 -2 -12 5 -2 7 -10 10 -18 7 -7 -3 -26
1 -42 10 -27 15 -28 16 -6 22 13 3 20 11 17 16 -4 5 8 2 25 -7 18 -9 35 -23
38 -31z m5674 16 c6 -17 16 -28 22 -24 7 3 4 -1 -6 -9 -12 -10 -14 -17 -8 -22
19 -11 12 -22 -21 -30 -42 -9 -87 -15 -70 -8 6 2 12 13 12 24 0 10 5 19 11 19
5 0 7 4 4 10 -5 8 32 70 42 70 2 0 9 -13 14 -30z m-5113 -2 c-12 -10 -19 -20
-17 -22 2 -1 13 -9 24 -15 17 -10 17 -12 2 -7 -16 5 -18 2 -12 -24 5 -23 3
-30 -9 -30 -8 0 -16 10 -18 23 -2 12 -8 21 -14 20 -7 -1 -11 9 -11 22 0 14 3
25 8 25 5 0 9 6 9 13 0 8 12 14 30 14 l29 0 -21 -19z m-280 -43 c7 -14 12 -28
12 -30 0 -9 -39 -5 -45 5 -3 6 -15 10 -26 10 -11 0 -19 7 -19 16 0 13 3 14 15
4 12 -10 16 -9 21 4 9 24 29 19 42 -9z m-178 -11 c0 -7 -5 -16 -10 -19 -15 -9
-40 13 -34 30 7 16 44 7 44 -11z m337 20 c-3 -3 -12 -4 -19 -1 -8 3 -5 6 6 6
11 1 17 -2 13 -5z m6155 -32 c5 -5 9 -25 8 -43 -3 -76 -1 -104 9 -107 6 -2 11
-10 11 -17 0 -7 26 -20 63 -30 104 -28 193 -105 122 -105 -26 0 -87 -28 -93
-43 -11 -24 -43 -27 -81 -7 -22 11 -53 20 -69 20 -16 0 -35 7 -42 15 -13 15
-35 10 -25 -6 4 -5 -6 -4 -20 3 -20 9 -28 9 -34 0 -10 -17 -61 8 -61 31 0 9
-5 17 -10 17 -11 0 -50 82 -50 106 0 8 9 14 19 14 11 0 23 5 26 10 4 6 10 8
15 5 10 -6 60 56 60 73 0 7 3 12 8 12 4 0 13 13 20 29 7 17 21 32 30 35 23 6
83 -1 94 -12z m-6215 -8 c-3 -3 -12 -4 -19 -1 -8 3 -5 6 6 6 11 1 17 -2 13 -5z
m5193 -4 c0 -5 -7 -7 -15 -4 -8 4 -15 8 -15 10 0 2 7 4 15 4 8 0 15 -4 15 -10z
m-5070 -21 c0 -6 7 -17 15 -25 17 -18 20 -64 4 -64 -5 0 -7 5 -4 10 4 6 0 21
-7 33 -21 33 -29 57 -18 57 6 0 10 -5 10 -11z m1662 -7 c9 -9 2 -12 -31 -12
-35 0 -41 3 -32 13 13 16 47 15 63 -1z m3358 -2 c0 -5 -5 -10 -11 -10 -5 0 -7
5 -4 10 3 6 8 10 11 10 2 0 4 -4 4 -10z m-5205 -10 c3 -5 1 -10 -4 -10 -6 0
-11 5 -11 10 0 6 2 10 4 10 3 0 8 -4 11 -10z m5815 -191 c0 -5 -7 -9 -15 -9
-15 0 -20 12 -9 23 8 8 24 -1 24 -14z m-467 2 c19 -8 30 -25 46 -77 25 -79 26
-100 6 -134 -8 -14 -19 -37 -25 -51 -6 -14 -22 -31 -35 -37 -14 -7 -25 -19
-25 -28 0 -20 -35 -66 -44 -57 -3 3 -6 2 -6 -4 0 -21 -42 -27 -149 -20 -42 3
-45 5 -48 35 -2 18 0 32 6 32 11 0 26 38 23 58 -2 6 4 12 13 12 13 0 20 26 17
60 0 3 19 19 43 35 35 24 45 36 45 58 0 16 4 26 9 23 5 -4 7 3 4 14 -3 11 -1
20 4 20 5 0 15 11 21 25 7 14 22 30 34 35 30 12 32 12 61 1z m500 -38 c-5 -12
-7 -12 -14 -1 -5 7 -9 19 -9 27 0 11 3 11 14 1 8 -6 12 -18 9 -27z m97 -39 c0
-10 13 -14 43 -14 45 -1 77 -18 77 -43 0 -8 3 -17 8 -20 4 -2 2 -2 -5 -1 -7 2
-15 -2 -19 -8 -4 -7 -9 -6 -15 3 -8 12 -11 11 -19 -1 -6 -10 -10 -11 -10 -2 0
19 -20 14 -40 -10 -11 -13 -17 -32 -14 -43 4 -15 3 -17 -4 -6 -16 23 -40 6
-35 -23 3 -14 9 -26 14 -26 5 0 9 -14 9 -31 0 -16 4 -28 8 -25 5 3 9 -1 9 -9
0 -8 -3 -12 -7 -10 -4 3 -31 5 -61 6 -57 2 -81 17 -94 58 -6 20 -4 23 9 18 9
-4 15 -1 13 6 -1 7 7 12 18 11 11 0 31 10 45 24 14 14 19 22 13 18 -15 -8 -16
-5 -7 18 8 21 34 21 34 0 0 -9 6 -14 13 -11 20 6 14 31 -13 44 -14 7 -24 20
-22 29 2 9 -1 13 -7 9 -7 -3 -8 0 -5 9 3 9 11 16 16 16 6 0 8 6 5 14 -7 19 0
25 24 19 10 -3 19 -12 19 -19z m-1157 -146 c-3 -13 -12 -30 -19 -38 -8 -10
-10 -21 -4 -30 10 -16 3 -33 -11 -25 -5 4 -9 1 -9 -4 0 -6 -3 -10 -7 -10 -23
4 -30 -4 -31 -35 -1 -31 -16 -66 -56 -129 -8 -12 -12 -30 -11 -39 2 -11 -3
-15 -15 -13 -10 2 -24 -3 -31 -11 -19 -23 -27 -16 -25 24 2 53 38 125 84 169
22 21 47 53 56 70 9 18 28 40 41 49 14 9 25 23 25 30 0 8 4 14 9 14 5 0 7 -10
4 -22z m1793 -75 c-10 -10 -19 5 -10 18 6 11 8 11 12 0 2 -7 1 -15 -2 -18z
m584 23 c0 -3 -4 -8 -10 -11 -5 -3 -10 -1 -10 4 0 6 5 11 10 11 6 0 10 -2 10
-4z m-5660 -66 c0 -5 -4 -10 -9 -10 -6 0 -13 5 -16 10 -3 6 1 10 9 10 9 0 16
-4 16 -10z m200 -10 c0 -15 -7 -20 -28 -20 -34 0 -43 7 -35 26 3 8 18 14 34
14 22 0 29 -5 29 -20z m155 6 c34 -18 23 -24 -40 -24 -63 1 -74 7 -44 24 31
17 51 17 84 0z m4553 -66 c32 -30 29 -68 -5 -75 -16 -3 -40 -12 -55 -20 -23
-11 -27 -11 -32 1 -3 8 -14 14 -23 12 -33 -6 -26 32 14 67 44 40 70 43 101 15z
m-4606 -177 c23 -21 23 -45 -2 -68 -16 -14 -29 -16 -67 -11 -27 4 -59 7 -73 7
-84 -3 -95 -1 -117 24 -25 29 -21 52 10 58 12 2 69 5 126 6 84 1 108 -2 123
-16z m3367 -42 c26 -29 34 -56 27 -84 -5 -21 -14 -28 -82 -60 -17 -8 -35 -20
-39 -27 -5 -8 -11 -6 -21 7 -13 17 -13 17 -15 -2 -1 -11 -5 2 -10 30 -7 44 -5
55 19 100 15 27 32 50 39 50 6 0 15 3 19 7 12 13 43 3 63 -21z m-602 -203 c-3
-8 -6 -5 -6 6 -1 11 2 17 5 13 3 -3 4 -12 1 -19z m-2849 -2 c39 -20 60 -47 64
-81 3 -28 1 -30 -32 -32 -41 -3 -128 15 -136 28 -13 22 8 67 39 83 39 19 33
19 65 2z m3017 -4 c13 -9 13 -34 1 -48 -5 -5 -24 -11 -41 -12 -27 -2 -32 1
-31 17 2 33 48 61 71 43z m306 -4 c1 -7 1 -16 0 -20 0 -5 4 -8 9 -8 13 0 13
-37 0 -45 -6 -4 -8 -11 -5 -16 6 -9 1 -11 -48 -14 -28 -2 -59 29 -36 37 5 2
11 11 13 20 5 38 64 77 67 46z m-494 -119 c-11 -18 -47 -27 -47 -11 0 4 9 18
20 32 11 14 20 32 21 40 0 8 5 2 9 -14 6 -18 5 -35 -3 -47z m-3024 -163 c13
-10 27 -12 51 -5 21 6 43 6 58 0 20 -8 64 -10 203 -13 11 0 35 4 53 10 28 9
36 8 53 -9 29 -29 25 -59 -8 -61 -30 -1 -31 -1 -108 7 -27 3 -79 8 -115 11
-107 9 -143 16 -158 31 -8 8 -26 13 -41 11 -18 -2 -27 2 -29 15 -4 20 16 22
41 3z m9224 -2853 c-3 -10 -5 -2 -5 17 0 19 2 27 5 18 2 -10 2 -26 0 -35z
m-137 -137 c0 -12 -13 -36 -20 -36 -4 0 -10 9 -13 20 -4 15 0 20 14 20 10 0
19 -2 19 -4z m-470 -426 c0 -5 -13 -10 -30 -10 -16 0 -30 5 -30 10 0 6 14 10
30 10 17 0 30 -4 30 -10z m-1750 -544 c0 -8 -4 -18 -10 -21 -5 -3 -10 3 -10
14 0 12 5 21 10 21 6 0 10 -6 10 -14z"/>
<path d="M4446 6784 c-3 -9 -6 -31 -6 -49 0 -19 -4 -37 -10 -40 -5 -3 -10 0
-10 7 0 9 -3 9 -10 -2 -14 -22 -12 -43 3 -37 10 4 13 -2 9 -19 -5 -28 12 -33
23 -6 8 19 18 162 12 162 -3 0 -8 -7 -11 -16z"/>
<path d="M4456 6555 c4 -8 8 -15 10 -15 2 0 4 7 4 15 0 8 -4 15 -10 15 -5 0
-7 -7 -4 -15z"/>
<path d="M4005 9390 c-3 -5 1 -10 9 -10 8 0 18 5 21 10 3 6 -1 10 -9 10 -8 0
-18 -4 -21 -10z"/>
<path d="M4240 9340 c0 -6 7 -10 15 -10 8 0 15 2 15 4 0 2 -7 6 -15 10 -8 3
-15 1 -15 -4z"/>
<path d="M2990 9190 c-6 -11 -8 -20 -6 -20 3 0 10 9 16 20 6 11 8 20 6 20 -3
0 -10 -9 -16 -20z"/>
<path d="M4493 9200 c-13 -5 -23 -12 -23 -14 0 -3 10 -11 23 -17 20 -11 21
-11 8 4 -11 15 -11 17 2 17 9 0 19 5 22 10 7 12 -2 12 -32 0z"/>
<path d="M2790 9020 c0 -5 5 -10 10 -10 6 0 10 5 10 10 0 6 -4 10 -10 10 -5 0
-10 -4 -10 -10z"/>
<path d="M5180 8415 c-11 -13 -10 -14 4 -9 9 3 16 10 16 15 0 13 -6 11 -20 -6z"/>
<path d="M3144 6053 c14 -14 29 -23 32 -20 7 7 -33 47 -47 47 -7 0 0 -12 15
-27z"/>
<path d="M3170 5997 c0 -7 69 -47 80 -47 5 0 7 7 4 15 -4 8 -10 13 -14 10 -5
-3 -10 -1 -12 4 -3 10 -58 27 -58 18z"/>
<path d="M2173 5463 c9 -2 25 -2 35 0 9 3 1 5 -18 5 -19 0 -27 -2 -17 -5z"/>
<path d="M14772 5248 c-29 -29 -7 -78 35 -78 19 0 23 5 23 29 0 57 -27 80 -58
49z"/>
<path d="M14650 2330 c0 -5 7 -10 16 -10 8 0 12 5 9 10 -3 6 -10 10 -16 10 -5
0 -9 -4 -9 -10z"/>
<path d="M14330 1539 c0 -22 4 -38 8 -35 8 5 4 76 -4 76 -2 0 -4 -18 -4 -41z"/>
<path d="M13320 1130 c0 -5 14 -10 30 -10 17 0 30 5 30 10 0 6 -13 10 -30 10
-16 0 -30 -4 -30 -10z"/>
<path d="M13141 1104 c0 -11 3 -14 6 -6 3 7 2 16 -1 19 -3 4 -6 -2 -5 -13z"/>
<path d="M3795 601 c-3 -6 -9 -9 -13 -7 -13 7 -27 -19 -30 -54 -2 -19 -9 -39
-15 -45 -7 -6 -12 -37 -12 -72 0 -54 3 -63 26 -82 15 -11 29 -33 32 -48 3 -16
12 -46 21 -68 9 -25 15 -74 16 -132 l0 -93 43 0 42 0 13 56 c13 54 13 56 -12
81 -14 14 -27 32 -30 42 -29 100 -56 245 -61 326 -7 105 -9 113 -20 96z"/>
<path d="M12128 573 c7 -3 16 -2 19 1 4 3 -2 6 -13 5 -11 0 -14 -3 -6 -6z"/>
<path d="M12000 480 c0 -19 3 -21 12 -12 9 9 9 15 0 24 -9 9 -12 7 -12 -12z"/>
<path d="M4148 427 c-9 -9 -17 -14 -19 -12 -6 6 -1 -244 5 -269 6 -24 -22 -84
-55 -120 l-20 -21 62 -3 c85 -4 89 0 134 153 1 6 3 15 5 20 1 6 6 15 11 21 10
12 9 104 -2 119 -4 6 -9 24 -11 40 -2 23 -7 29 -23 27 -12 -3 -28 8 -45 28
-24 29 -28 31 -42 17z"/>
</g>
</svg>
